<?xml version="1.0" encoding="utf-8"?>
<!-- Generator: Adobe Illustrator 23.0.0, SVG Export Plug-In . SVG Version: 6.00 Build 0)  -->
<svg version="1.1" id="Capa_1" xmlns="http://www.w3.org/2000/svg" xmlns:xlink="http://www.w3.org/1999/xlink" x="0px" y="0px"
	 viewBox="0 0 20 20" style="enable-background:new 0 0 20 20;" xml:space="preserve">
<g>
	<g>
		<g>
			<path d="M9.7,8.2c-0.9-1.7-1.9-3-2-3.1c-1.5,0.7-2.6,2.1-3,3.7C4.9,8.9,7.1,8.9,9.7,8.2z"/>
			<path d="M8.7,4.8C8.7,4.8,8.7,4.8,8.7,4.8C8.7,4.8,8.7,4.8,8.7,4.8L8.7,4.8z"/>
			<path d="M13.5,6c-0.9-0.8-2.2-1.3-3.5-1.3c-0.4,0-0.9,0.1-1.3,0.2c0.1,0.1,1.1,1.4,2,3.1C12.8,7.2,13.5,6,13.5,6z"/>
			<path d="M10.9,10.9c-3.2,1.1-4.2,3.3-4.2,3.3c0.9,0.7,2.1,1.1,3.3,1.1c0.7,0,1.5-0.2,2.1-0.4C12,14.5,11.7,12.8,10.9,10.9
				C10.9,10.9,10.9,10.9,10.9,10.9z"/>
			<path d="M10.4,10c0.1,0,0.1,0,0.2-0.1c-0.1-0.3-0.3-0.6-0.4-0.9C7.4,9.9,4.7,9.8,4.6,9.8c0,0.1,0,0.1,0,0.2
				c0,1.4,0.5,2.6,1.4,3.6l0,0C6,13.6,7.5,11,10.4,10z"/>
			<path d="M10,0C4.5,0,0,4.5,0,10c0,5.5,4.5,10,10,10c5.5,0,10-4.5,10-10C20,4.5,15.5,0,10,0z M16.2,11.3c-0.1,0.4-0.2,0.8-0.4,1.2
				c-0.2,0.4-0.4,0.7-0.6,1.1c-0.2,0.3-0.5,0.6-0.8,0.9c-0.3,0.3-0.6,0.5-0.9,0.8c-0.3,0.2-0.7,0.4-1.1,0.6
				c-0.4,0.2-0.8,0.3-1.2,0.4c-0.4,0.1-0.8,0.1-1.3,0.1c-0.4,0-0.9,0-1.3-0.1c-0.4-0.1-0.8-0.2-1.2-0.4c-0.4-0.2-0.7-0.4-1.1-0.6
				c-0.3-0.2-0.6-0.5-0.9-0.8c-0.3-0.3-0.5-0.6-0.8-0.9c-0.2-0.3-0.4-0.7-0.6-1.1c-0.2-0.4-0.3-0.8-0.4-1.2
				c-0.1-0.4-0.1-0.8-0.1-1.3c0-0.4,0-0.9,0.1-1.3c0.1-0.4,0.2-0.8,0.4-1.2c0.2-0.4,0.4-0.7,0.6-1.1C5,6.2,5.3,5.8,5.6,5.6
				C5.8,5.3,6.2,5,6.5,4.8c0.3-0.2,0.7-0.4,1.1-0.6c0.4-0.2,0.8-0.3,1.2-0.4C9.1,3.8,9.6,3.7,10,3.7c0.4,0,0.9,0,1.3,0.1
				c0.4,0.1,0.8,0.2,1.2,0.4c0.4,0.2,0.7,0.4,1.1,0.6c0.3,0.2,0.6,0.5,0.9,0.8c0.3,0.3,0.5,0.6,0.8,0.9c0.2,0.3,0.4,0.7,0.6,1.1
				c0.2,0.4,0.3,0.8,0.4,1.2c0.1,0.4,0.1,0.8,0.1,1.3C16.3,10.4,16.2,10.9,16.2,11.3z"/>
			<path d="M12,10.6c0.7,1.9,1,3.5,1,3.8c1.2-0.8,2.1-2.1,2.3-3.6C15.2,10.8,13.7,10.3,12,10.6z"/>
			<path d="M11.2,8.7c0.1,0.3,0.2,0.5,0.4,0.8c0,0.1,0.1,0.2,0.1,0.3c1.8-0.2,3.7,0.2,3.7,0.2c0-1.3-0.5-2.4-1.2-3.4
				C14.1,6.6,13.3,7.9,11.2,8.7z"/>
		</g>
	</g>
</g>
</svg>
