<?xml version="1.0" encoding="utf-8"?>
<!-- Generator: Adobe Illustrator 23.0.0, SVG Export Plug-In . SVG Version: 6.00 Build 0)  -->
<svg version="1.1" id="Capa_1" xmlns="http://www.w3.org/2000/svg" xmlns:xlink="http://www.w3.org/1999/xlink" x="0px" y="0px"
	 viewBox="0 0 20 20" style="enable-background:new 0 0 20 20;" xml:space="preserve">
<g>
	<path d="M18.7,5.2c-0.9-1.5-2.1-2.7-3.6-3.6c-1.5-0.9-3.2-1.3-5-1.3c-1.8,0-3.5,0.4-5,1.3C3.4,2.5,2.2,3.7,1.3,5.2
		C0.4,6.8,0,8.4,0,10.2c0,2.2,0.6,4.1,1.9,5.9c1.3,1.7,2.9,2.9,4.9,3.6c0.2,0,0.4,0,0.5-0.1c0.1-0.1,0.2-0.2,0.2-0.4
		c0,0,0-0.3,0-0.7c0-0.4,0-0.8,0-1.2l-0.3,0.1c-0.2,0-0.4,0-0.7,0c-0.3,0-0.6,0-0.9-0.1C5.3,17.3,5,17.2,4.7,17
		c-0.3-0.2-0.5-0.5-0.6-0.8L4,15.9c-0.1-0.2-0.2-0.4-0.4-0.7C3.4,15,3.2,14.8,3,14.7l-0.1-0.1c-0.1,0-0.1-0.1-0.2-0.2
		c-0.1-0.1-0.1-0.1-0.1-0.2c0-0.1,0-0.1,0.1-0.1s0.2-0.1,0.4-0.1l0.3,0c0.2,0,0.4,0.1,0.6,0.3c0.3,0.2,0.5,0.4,0.6,0.7
		c0.2,0.4,0.4,0.6,0.7,0.8c0.3,0.2,0.6,0.3,0.9,0.3s0.5,0,0.7-0.1c0.2,0,0.4-0.1,0.6-0.2c0.1-0.6,0.3-1,0.6-1.3
		c-0.5-0.1-0.9-0.1-1.3-0.2c-0.4-0.1-0.8-0.3-1.2-0.5c-0.4-0.2-0.8-0.5-1-0.9c-0.3-0.3-0.5-0.8-0.7-1.4c-0.2-0.6-0.3-1.2-0.3-2
		c0-1.1,0.3-1.9,1-2.7C4.3,6.3,4.4,5.4,4.7,4.4c0.3-0.1,0.6,0,1.1,0.2c0.5,0.2,0.9,0.4,1.1,0.5c0.2,0.1,0.4,0.3,0.6,0.4
		C8.3,5.2,9.1,5.1,10,5.1c0.9,0,1.7,0.1,2.5,0.3L13,5.1c0.3-0.2,0.7-0.4,1.2-0.6c0.5-0.2,0.8-0.2,1.1-0.1c0.4,1,0.4,1.9,0.1,2.7
		c0.7,0.7,1,1.6,1,2.7c0,0.7-0.1,1.4-0.3,2c-0.2,0.6-0.4,1-0.7,1.4c-0.3,0.3-0.6,0.6-1.1,0.9c-0.4,0.2-0.8,0.4-1.2,0.5
		c-0.4,0.1-0.8,0.2-1.3,0.2c0.5,0.4,0.7,1,0.7,1.8v2.7c0,0.2,0.1,0.3,0.2,0.4c0.1,0.1,0.3,0.1,0.5,0.1c2-0.7,3.7-1.9,4.9-3.6
		c1.3-1.7,1.9-3.7,1.9-5.9C20,8.4,19.6,6.8,18.7,5.2z"/>
</g>
</svg>
