<?xml version="1.0" encoding="utf-8"?>
<!-- Generator: Adobe Illustrator 23.0.0, SVG Export Plug-In . SVG Version: 6.00 Build 0)  -->
<svg version="1.1" id="Capa_1" xmlns="http://www.w3.org/2000/svg" xmlns:xlink="http://www.w3.org/1999/xlink" x="0px" y="0px"
	 viewBox="0 0 20 20" style="enable-background:new 0 0 20 20;" xml:space="preserve">
<path d="M10,0C4.5,0,0,4.5,0,10c0,5.5,4.5,10,10,10c5.5,0,10-4.5,10-10C20,4.5,15.5,0,10,0z M14.5,7.7c0,0.1,0,0.2,0,0.3
	c0,3-2.3,6.5-6.5,6.5c-1.3,0-2.5-0.4-3.5-1c0.2,0,0.4,0,0.5,0c1.1,0,2.1-0.4,2.9-1c-1,0-1.9-0.7-2.2-1.6c0.1,0,0.3,0,0.4,0
	c0.2,0,0.4,0,0.6-0.1c-1.1-0.2-1.8-1.1-1.8-2.3c0,0,0,0,0,0c0.3,0.2,0.7,0.3,1,0.3c-0.6-0.4-1-1.1-1-1.9c0-0.4,0.1-0.8,0.3-1.2
	C6.3,7.3,8,8.2,9.9,8.3c0-0.2-0.1-0.3-0.1-0.5c0-1.3,1-2.3,2.3-2.3c0.7,0,1.3,0.3,1.7,0.7c0.5-0.1,1-0.3,1.5-0.6
	c-0.2,0.5-0.5,1-1,1.3c0.5-0.1,0.9-0.2,1.3-0.4C15.3,7,14.9,7.4,14.5,7.7z"/>
</svg>
