<?xml version="1.0" encoding="utf-8"?>
<!-- Generator: Adobe Illustrator 23.0.0, SVG Export Plug-In . SVG Version: 6.00 Build 0)  -->
<svg version="1.1" id="Capa_1" xmlns="http://www.w3.org/2000/svg" xmlns:xlink="http://www.w3.org/1999/xlink" x="0px" y="0px"
	 viewBox="0 0 20 20" style="enable-background:new 0 0 20 20;" xml:space="preserve">
<style type="text/css">
	.st0{fill:#010002;}
</style>
<g>
	<g>
		<g>
			<path class="st0" d="M10,0C4.5,0,0,4.5,0,10s4.5,10,10,10s10-4.5,10-10C20,4.5,15.5,0,10,0z M7.5,14.8H5V6.1h2.5V14.8z M6.3,5.6
				C5.7,5.6,5.2,5,5.2,4.4s0.5-1.2,1.2-1.2c0.6,0,1.2,0.5,1.2,1.2C7.5,5,7,5.6,6.3,5.6z M16.2,14.8h-2.5V9.4c0-0.6-0.2-1.1-1-1.1
				c-1.3,0-1.5,1.1-1.5,1.1v5.4H8.7V6.1h2.5v0.8c0.4-0.3,1.2-0.8,2.5-0.8c0.8,0,2.5,0.5,2.5,3.4L16.2,14.8L16.2,14.8z"/>
		</g>
	</g>
</g>
</svg>
