<svg xmlns="http://www.w3.org/2000/svg" viewBox="0 0 20 19.5">
  <title>github</title>
  <g id="Layer_2" data-name="Layer 2">
    <g id="Capa_1" data-name="Capa 1">
      <path d="M18.7,5A9.4,9.4,0,0,0,15,1.3,9.6,9.6,0,0,0,10,0,9.6,9.6,0,0,0,5,1.3,9.4,9.4,0,0,0,1.3,5,9.6,9.6,0,0,0,0,10a9.7,9.7,0,0,0,1.9,5.9,10.3,10.3,0,0,0,4.9,3.6h.6c.1-.1.1-.2.1-.4V17.1H5.6l-.9-.4a2.4,2.4,0,0,1-.6-.8v-.3a2.5,2.5,0,0,0-.4-.7L3,14.5H2.8v-.2c-.1-.1,0-.1,0-.1h.7l.6.3a1.3,1.3,0,0,1,.6.7,2,2,0,0,0,.8.8,1.1,1.1,0,0,0,.8.3H7l.5-.2a2.1,2.1,0,0,1,.7-1.4l-1.4-.2-1.2-.5a4.5,4.5,0,0,1-1-.9,3.7,3.7,0,0,1-.7-1.4,5.4,5.4,0,0,1-.3-1.9,4.1,4.1,0,0,1,1-2.7,4.2,4.2,0,0,1,.1-2.7,3,3,0,0,1,1.2.2l1,.5.6.4A6.9,6.9,0,0,1,10,4.8a6.9,6.9,0,0,1,2.5.4l.5-.3a3.4,3.4,0,0,1,1.2-.6l1-.2a3.7,3.7,0,0,1,.2,2.7,4.1,4.1,0,0,1,1,2.7,5.4,5.4,0,0,1-.3,1.9,3.7,3.7,0,0,1-.7,1.4l-1,.9-1.3.5-1.3.2a2.2,2.2,0,0,1,.7,1.9V19c0,.2,0,.3.1.4h.6a10.3,10.3,0,0,0,4.9-3.6A9.7,9.7,0,0,0,20,10,9.6,9.6,0,0,0,18.7,5Z"/>
    </g>
  </g>
</svg>
