<svg width="51" height="56" viewBox="0 0 51 56" fill="none" xmlns="http://www.w3.org/2000/svg">
<g clip-path="url(#clip0)">
<path d="M4.73359 7.88907C4.48851 8.04983 4.25424 8.2267 4.03231 8.41854C3.52805 8.844 3.09065 9.34383 2.73496 9.90105C2.44423 10.4367 2.25965 11.0241 2.19147 11.6306C2.15641 11.8777 2.10382 12.1072 2.06875 12.3366C1.99863 12.8484 1.89343 13.3426 1.84084 13.8544C1.70058 14.8604 1.5428 15.8664 1.42008 16.89C1.19216 18.9196 0.946717 20.9493 0.736336 22.9789C0.648677 23.8084 0.543486 24.6555 0.49089 25.485C0.403231 26.7911 0.298041 28.0971 0.210382 29.3855C0.140254 30.2326 0.122723 31.0621 0.105191 31.9093C0.087659 32.7564 0 33.7447 0 34.6625C0.0175318 35.9156 0.0350636 37.1686 0.0350636 38.4217C0.0525954 39.3394 0.122723 40.2395 0.175318 41.1396C0.298041 43.0987 0.473359 45.0577 0.68374 47.0167C0.894122 48.9758 1.06944 50.6171 1.27982 52.4173C1.33242 52.9644 1.38501 53.5115 1.42008 54.041C1.45514 54.5705 1.45514 54.5881 1.45514 54.8528C1.45514 55.1176 1.47267 55.0999 1.4902 55.2235C1.48955 55.413 1.50716 55.6021 1.5428 55.7882C1.56033 55.8412 1.56033 55.8941 1.61293 55.9294C1.66493 55.9693 1.72696 55.9937 1.79201 55.9999C1.85706 56.0061 1.92255 55.994 1.98109 55.9647L2.62977 55.6823C3.27732 55.2794 3.88754 54.8187 4.45308 54.3057C5.18136 53.6579 5.87208 52.9684 6.52183 52.2408L7.32829 51.2348C7.69542 50.7893 7.98042 50.2812 8.16982 49.7347C8.25748 49.2405 7.92437 48.6757 7.74906 48.2169C7.57374 47.758 7.45101 47.3874 7.31076 46.9638C7.04778 46.1343 6.80234 45.2695 6.57442 44.4223C6.066 42.5339 5.66277 40.6278 5.25954 38.7041C4.97903 37.3628 4.80371 36.0214 4.59333 34.6625C4.48814 33.6918 4.40048 32.7211 4.31282 31.7504C4.22516 30.7797 4.20763 30.3208 4.17257 29.5796C4.1375 28.503 4.10244 27.4264 4.04985 26.3322C3.99725 25.238 4.06738 24.3555 4.06738 23.3672C4.06738 19.608 4.29529 15.8664 4.5758 12.1248C4.61086 11.6483 4.64593 11.1718 4.69852 10.7129L4.82124 9.54807L4.87384 8.9833L4.97903 8.84211C5.08422 8.70092 5.36473 8.36559 5.27707 8.13616C5.24261 8.01661 5.18934 7.9034 5.11929 7.80083H5.01409C4.91114 7.80186 4.81183 7.83935 4.73359 7.90672V7.88907Z" fill="black"/>
<path d="M18.2331 22.3612C17.939 22.4725 17.6521 22.6022 17.374 22.7495C16.8831 23.0495 16.4098 23.3848 15.954 23.7201L14.7969 24.5496L12.4476 26.2616C10.8697 27.3735 9.27434 28.4854 7.73154 29.6502L3.89207 32.6328C3.30079 33.0779 2.74401 33.5676 2.22655 34.0977L1.42009 34.9625C1.00212 35.4234 0.632031 35.926 0.315588 36.4627C0.214865 36.5725 0.14289 36.7058 0.10616 36.8506C0.0694311 36.9954 0.0691032 37.1472 0.105207 37.2922L0.420779 37.3275C0.859672 37.1683 1.26867 36.9356 1.63047 36.6392C3.01548 35.5273 4.4005 34.4154 5.85564 33.3741L10.1685 30.3738L9.6425 30.7268C10.5542 30.1267 11.4658 29.4737 12.4301 28.9619H12.4827C12.7807 28.856 13.0612 28.7148 13.3417 28.5912C13.7624 28.3638 14.1615 28.098 14.5339 27.797L14.078 28.0971C14.572 27.7729 15.0462 27.4193 15.4981 27.0381C16.45 26.2067 17.3137 25.2781 18.0753 24.2673L18.5837 23.4731C18.6978 23.3533 18.7788 23.2056 18.8188 23.0447C18.8587 22.8837 18.8563 22.715 18.8116 22.5553L18.461 22.52C18.7941 22.52 18.9168 22.4671 18.8467 22.3259L18.4785 22.2906C18.3925 22.2954 18.3087 22.3195 18.2331 22.3612V22.3612Z" fill="black"/>
<path d="M22.4408 5.64766C21.7052 6.00094 21.0351 6.47849 20.4597 7.05957C19.5009 7.93074 18.61 8.87479 17.7949 9.8834C17.225 10.5365 16.6979 11.2263 16.217 11.9483C15.2703 13.3602 15.2177 13.3955 14.4813 14.8074C14.271 15.1957 14.0606 15.6546 14.0956 16.1135C14.1336 16.4828 14.1453 16.8543 14.1307 17.2253C14.1307 18.0019 14.1482 18.7784 14.1658 19.5726C14.2008 21.4317 14.2184 23.2848 14.2184 25.1321C14.2184 26.9499 14.2184 28.7677 14.2359 30.5856C14.2534 31.3621 14.271 32.121 14.306 32.8976C14.3411 33.6741 14.3586 34.9449 14.4463 35.9685C14.6041 37.8393 14.7443 39.7277 14.9547 41.5985C15.1651 43.4693 15.3579 45.2165 15.5859 47.0344C15.8138 48.8522 16.0241 50.5818 16.3222 52.3467C16.2871 52.5585 16.3748 52.6467 16.5852 52.5761L16.9533 52.3643C17.3206 52.0918 17.6612 51.7845 17.9702 51.4466C18.3614 51.0192 18.7301 50.5715 19.0747 50.1053L19.4954 49.4699C19.688 49.1848 19.8304 48.8683 19.9162 48.5345C19.5831 46.5225 19.4428 44.4929 19.3026 42.4456C19.1623 40.3984 19.1097 38.2452 19.0221 36.1273C19.0046 35.2625 19.0046 34.3977 19.0046 33.5329C19.0046 32.6681 18.9695 31.7151 19.0046 30.815L19.1623 26.9852C19.1974 26.0145 19.3026 25.0438 19.3727 24.0731C19.5305 22.167 19.7234 20.2433 19.9688 18.3372C20.1266 17.2077 20.2668 16.0958 20.4071 14.9839C20.5474 13.8721 20.6701 12.9896 20.8629 12.0013C21.0558 11.0129 21.2311 10.254 21.459 9.38923L22.0726 8.41854C22.5373 7.74237 22.8814 6.98986 23.0895 6.19477C23.1421 5.78885 23.0193 5.59471 22.7564 5.59471L22.4408 5.64766Z" fill="black"/>
<path d="M28.7871 22.8377C28.4632 23.0787 28.1741 23.3638 27.9281 23.6849C27.743 23.9145 27.5731 24.1563 27.4196 24.4085C27.4196 24.3908 27.1567 24.832 27.1742 24.9732C26.9989 25.8733 26.9112 26.7911 26.8236 27.6912C26.771 28.15 26.7359 28.6089 26.6833 29.0678C26.5781 30.1973 26.4729 31.3268 26.4028 32.474C26.245 34.5389 26.1924 36.6215 26.1398 38.6864C26.1048 40.2572 26.1048 41.8279 26.0522 43.3987C26.0346 44.2282 25.9996 45.04 25.9645 45.8519C25.947 46.2225 25.8944 46.5755 25.8768 46.9461C25.8471 47.1387 25.8354 47.3337 25.8418 47.5285C25.853 47.7296 25.9005 47.927 25.982 48.1109C26.0334 48.1661 26.101 48.2032 26.1749 48.2168C26.3507 48.2533 26.533 48.2414 26.7027 48.1824C26.8724 48.1234 27.0231 48.0194 27.1391 47.8815C27.7388 47.4339 28.2963 46.9317 28.8047 46.3813C29.4601 45.6873 30.0692 44.9503 30.628 44.1752C31.2065 43.3634 31.75 42.5515 32.0305 41.5808C32.1082 41.3358 32.1438 41.0791 32.1357 40.8219C32.1069 40.5497 32.042 40.2826 31.9428 40.0277C31.8377 39.7101 31.7325 39.41 31.6623 39.11C31.4695 38.4393 31.3468 37.751 31.2065 37.0627V37.1157C30.8734 35.439 30.5403 33.7624 30.2598 32.0681C29.9921 30.4021 29.8107 28.7231 29.7163 27.0381C29.6637 26.4557 29.6286 25.891 29.5936 25.3262L29.4884 24.2143C29.4881 24.0715 29.4705 23.9292 29.4358 23.7907C29.4165 23.6011 29.3872 23.4125 29.3481 23.226L29.2955 22.9436C29.2411 22.8645 29.1762 22.7933 29.1027 22.7318H29.0326C28.9401 22.7331 28.8519 22.7712 28.7871 22.8377V22.8377Z" fill="black"/>
<path d="M33.9417 4.2534C33.3329 4.36042 32.7463 4.5692 32.206 4.87111C31.2565 5.38076 30.3831 6.02241 29.6113 6.77719C28.0685 8.27735 26.6309 9.9187 25.5439 11.7718C25.3335 12.1425 25.1407 12.5307 24.9478 12.919C24.759 13.2422 24.6451 13.6042 24.6147 13.9779C24.5797 14.2603 24.7024 14.3662 24.9829 14.278C25.3985 14.0709 25.7775 13.7967 26.1049 13.4661C26.6572 12.9748 27.1675 12.4376 27.6302 11.8601L28.3665 10.9247C28.3665 10.907 28.3841 10.8894 28.4016 10.8717C28.6306 10.7907 28.8649 10.7258 29.1029 10.6776L28.8574 10.8541C28.4927 11.1166 28.1577 11.4184 27.8581 11.7542C26.8725 12.7518 26.0605 13.9093 25.4563 15.1781C25.1407 15.8573 24.894 16.5669 24.7199 17.2959C24.5242 17.9918 24.5995 18.7366 24.9303 19.3785C25.2108 19.8727 25.8069 20.0845 26.3328 20.1551C26.976 20.2267 27.6268 20.1357 28.2263 19.8903C28.8589 19.6294 29.4543 19.2852 29.997 18.8667C30.9451 18.1563 31.8202 17.3522 32.6092 16.4664C33.7709 15.2062 34.8154 13.8415 35.7299 12.3895C36.226 11.5879 36.6374 10.7361 36.9571 9.8481C37.2196 9.10284 37.4133 8.3348 37.5357 7.55374C37.6545 6.84012 37.5757 6.10732 37.3078 5.43587C36.8695 4.46518 35.8176 4.20045 34.8182 4.20045C34.5252 4.19996 34.2325 4.21765 33.9417 4.2534V4.2534ZM28.9276 12.7072C29.2314 12.3532 29.5069 11.9755 29.7515 11.5777L29.997 11.1188C30.0474 11.055 30.0829 10.9808 30.1011 10.9014C30.1193 10.822 30.1197 10.7395 30.1022 10.66C30.4546 10.7225 30.793 10.848 31.1015 11.0306C31.5444 11.3052 31.8648 11.7415 31.9956 12.2484C32.0719 12.963 32.0245 13.6856 31.8554 14.3839C31.2763 14.6506 30.6509 14.8005 30.0145 14.8251C29.2607 14.7721 28.5419 14.4898 28.3139 13.7309C28.2988 13.6316 28.2929 13.5312 28.2964 13.4308C28.5209 13.2024 28.7316 12.9608 28.9276 12.7072V12.7072Z" fill="black"/>
<path d="M45.1619 0.141197L44.9866 0.282388C44.7121 0.549361 44.46 0.838602 44.2327 1.14718C43.9629 1.49625 43.7444 1.8826 43.584 2.29436C43.4963 2.54145 43.4262 2.78853 43.3561 3.03562L43.1457 3.95336C43.0405 4.35929 42.9353 4.76521 42.8477 5.17114C42.6548 6.15948 42.4444 7.14782 42.2691 8.13616C42.0938 9.12449 41.8834 10.2364 41.7432 11.2953L41.2523 14.9486C41.112 15.9017 41.0419 16.8724 40.9542 17.8431C40.8666 18.8137 40.7964 19.6785 40.7439 20.5963C40.6036 22.6965 40.5159 24.7967 40.5335 26.9146C40.5335 28.0971 40.5685 29.2619 40.6036 30.4444C40.6211 31.115 40.6211 31.7857 40.6387 32.4564C40.6387 32.7211 40.6211 33.0035 40.6211 33.2682C40.6036 33.4266 40.6036 33.5864 40.6211 33.7447C40.6387 33.9389 40.6036 34.3448 40.8315 34.3801C41.0005 34.4157 41.1758 34.405 41.3393 34.3491C41.5027 34.2933 41.6482 34.1942 41.7607 34.0624C42.3466 33.6309 42.8871 33.14 43.3736 32.5975C44.0156 31.9308 44.6075 31.217 45.1443 30.462C45.5834 29.8832 45.965 29.2626 46.2839 28.6089C46.4198 28.2993 46.5141 27.9729 46.5644 27.6382C46.5491 27.4377 46.5017 27.2411 46.4242 27.0558C46.3675 26.8741 46.2848 26.7017 46.1787 26.544C46.0189 26.2256 45.8841 25.8951 45.7755 25.5556C45.6528 25.185 45.5125 24.8144 45.4248 24.4438C45.3372 24.0731 45.1969 23.5613 45.0917 23.1201C44.9515 22.3965 44.7937 21.6552 44.706 20.914C44.6184 20.1727 44.4781 19.1491 44.4431 18.2666L44.3379 16.3782C44.3379 16.0782 44.3028 15.7781 44.3028 15.4781C44.3028 14.3662 44.3028 13.2543 44.3203 12.1425C44.3379 11.0306 44.3905 10.3776 44.4255 9.49512C44.4606 8.61268 44.5307 7.88907 44.6008 7.07722C44.7762 5.17114 44.969 3.2827 45.232 1.41192L45.3898 1.16483C45.4631 1.0513 45.5164 0.925932 45.5476 0.794207C45.5476 0.705962 45.53 0.617718 45.53 0.529473C45.5396 0.357137 45.5219 0.184362 45.4774 0.0176544H45.4248C45.3275 0.0435331 45.2375 0.0918727 45.1619 0.158846V0.141197Z" fill="black"/>
<path d="M46.9327 35.8626C46.0605 36.2966 45.2711 36.8821 44.6009 37.5922L44.0925 38.0687C44.0755 38.0108 44.0463 37.9572 44.007 37.9115C43.9677 37.8659 43.9192 37.8292 43.8646 37.804C43.7945 37.7687 43.6542 37.8216 43.5841 37.8393C43.4602 37.8902 43.3425 37.9553 43.2335 38.0334C42.9897 38.2143 42.761 38.415 42.5497 38.6335C42.3253 38.8619 42.1145 39.1035 41.9186 39.3571C40.7264 40.7866 39.9024 42.4633 39.3239 44.2282C38.8256 45.6605 38.7705 47.2113 39.1661 48.6757C39.329 49.2333 39.6674 49.7226 40.1303 50.07C40.6914 50.4759 41.3576 50.5112 42.0413 50.5112C42.725 50.5112 43.4088 50.1053 44.0049 49.7346C44.4618 49.4403 44.8902 49.1035 45.2847 48.7287C46.0606 48.033 46.7816 47.2777 47.4411 46.4696C47.8792 45.9512 48.2889 45.4092 48.6683 44.8459C48.9313 44.4576 49.1943 44.0693 49.4397 43.6634C49.6852 43.2575 49.843 42.9575 50.0183 42.6221C50.4014 41.8995 50.6845 41.1276 50.8598 40.3278C51.0029 39.7209 51.0326 39.0925 50.9475 38.4746C50.8849 37.7554 50.6438 37.0635 50.2462 36.4627C49.9167 36.0142 49.4372 35.7008 48.8962 35.5802C48.7136 35.5296 48.5246 35.5058 48.3352 35.5096C47.8479 35.5242 47.3695 35.6446 46.9327 35.8626V35.8626ZM42.164 39.9924L42.129 40.0277C42.129 40.0101 42.1465 40.0101 42.164 39.9924ZM44.0575 40.6807C44.2377 40.6967 44.4148 40.7383 44.5834 40.8043C44.8169 40.9213 45.0253 41.0832 45.197 41.2808C45.5217 41.684 45.7389 42.1639 45.8282 42.6751C45.9299 43.2754 45.9535 43.8865 45.8983 44.4929H45.723C44.9981 44.4694 44.2964 44.2299 43.7068 43.8046C43.1397 43.351 42.7437 42.7158 42.5848 42.0044C42.5499 41.8123 42.5323 41.6173 42.5322 41.422L42.8653 41.122L43.1633 40.9102C43.4444 40.7748 43.7472 40.6911 44.0575 40.6631V40.6807Z" fill="black"/>
</g>
<defs>
<clipPath id="clip0">
<rect width="51" height="56" fill="white"/>
</clipPath>
</defs>
</svg>
