<?xml version="1.0" encoding="utf-8"?>
<!-- Generator: Adobe Illustrator 23.0.1, SVG Export Plug-In . SVG Version: 6.00 Build 0)  -->
<svg version="1.1" id="Layer_1" xmlns="http://www.w3.org/2000/svg" xmlns:xlink="http://www.w3.org/1999/xlink" x="0px" y="0px"
	 viewBox="0 0 154.5 23" style="enable-background:new 0 0 154.5 23;" xml:space="preserve">
<g>
	<g>
		<path d="M1.7,17.6c-0.7-0.2-1.2-0.5-1.6-0.8l0.7-1.5c0.9,0.6,1.9,0.9,3,0.9c0.6,0,1.1-0.1,1.4-0.3s0.5-0.5,0.5-0.8
			c0-0.3-0.1-0.5-0.4-0.7c-0.3-0.2-0.8-0.3-1.5-0.5c-0.8-0.2-1.5-0.4-2-0.6s-0.8-0.5-1.1-0.9s-0.3-0.8-0.3-1.3
			c0-0.6,0.2-1.1,0.5-1.5C1,9.2,1.5,8.9,2,8.6C2.6,8.4,3.3,8.3,4,8.3c0.7,0,1.3,0.1,1.9,0.3C6.5,8.7,7,9,7.4,9.3l-0.7,1.5
			C5.9,10.2,5,9.9,4,9.9c-0.5,0-0.9,0.1-1.3,0.3c-0.3,0.2-0.5,0.5-0.5,0.9c0,0.2,0.1,0.4,0.2,0.5c0.1,0.1,0.3,0.3,0.6,0.4
			c0.3,0.1,0.7,0.2,1.2,0.3c1.2,0.3,2.1,0.6,2.6,1c0.5,0.4,0.8,1,0.8,1.7c0,0.9-0.3,1.6-1,2.1c-0.7,0.5-1.6,0.8-2.9,0.8
			C3,17.9,2.4,17.8,1.7,17.6z"/>
		<path d="M10.3,17.4c-0.5-0.3-0.9-0.7-1.2-1.2c-0.3-0.5-0.4-1.1-0.4-1.8c0-0.7,0.1-1.3,0.4-1.8c0.3-0.5,0.7-0.9,1.2-1.2
			c0.5-0.3,1.2-0.4,1.9-0.4c0.7,0,1.3,0.1,1.8,0.4c0.5,0.3,0.9,0.7,1.2,1.2c0.3,0.5,0.4,1.1,0.4,1.8c0,0.7-0.1,1.3-0.4,1.8
			c-0.3,0.5-0.7,0.9-1.2,1.2c-0.5,0.3-1.1,0.4-1.8,0.4C11.5,17.9,10.8,17.7,10.3,17.4z M13.3,15.9c0.3-0.3,0.4-0.8,0.4-1.5
			c0-0.6-0.1-1.1-0.4-1.5c-0.3-0.3-0.6-0.5-1.1-0.5c-0.5,0-0.9,0.2-1.1,0.5c-0.3,0.3-0.4,0.8-0.4,1.5c0,1.3,0.5,2,1.5,2
			C12.7,16.3,13,16.2,13.3,15.9z"/>
		<path d="M26.8,11.6c0.4,0.5,0.6,1.2,0.6,2.1v4h-2v-4c0-0.5-0.1-0.8-0.2-1c-0.1-0.2-0.4-0.3-0.7-0.3c-0.4,0-0.7,0.1-0.9,0.4
			c-0.2,0.3-0.3,0.7-0.3,1.2v3.7h-2v-4c0-0.5-0.1-0.8-0.2-1s-0.4-0.3-0.7-0.3c-0.4,0-0.7,0.1-0.9,0.4c-0.2,0.3-0.3,0.7-0.3,1.2v3.7
			h-2V13c0-0.7,0-1.3-0.1-1.9h1.9l0.1,1c0.2-0.4,0.5-0.7,0.8-0.9c0.4-0.2,0.8-0.3,1.3-0.3c1,0,1.6,0.4,2,1.2
			c0.2-0.4,0.5-0.7,0.9-0.9c0.4-0.2,0.8-0.3,1.3-0.3C25.9,10.9,26.4,11.1,26.8,11.6z"/>
		<path d="M35.6,11.1v6.7h-2v-1c-0.2,0.3-0.5,0.6-0.9,0.8s-0.8,0.3-1.3,0.3c-0.6,0-1.1-0.1-1.5-0.4c-0.4-0.3-0.8-0.7-1-1.2
			c-0.3-0.5-0.4-1.1-0.4-1.8c0-0.7,0.1-1.3,0.4-1.8c0.2-0.5,0.6-0.9,1-1.2c0.4-0.3,1-0.4,1.5-0.4c0.5,0,0.9,0.1,1.3,0.3
			c0.4,0.2,0.7,0.5,0.9,0.8v-0.9H35.6z M33.3,15.8c0.3-0.3,0.4-0.8,0.4-1.4c0-0.6-0.1-1.1-0.4-1.5c-0.3-0.3-0.6-0.5-1.1-0.5
			c-0.5,0-0.9,0.2-1.1,0.5c-0.3,0.4-0.4,0.8-0.4,1.5c0,0.6,0.1,1.1,0.4,1.4c0.3,0.3,0.7,0.5,1.2,0.5C32.6,16.3,33,16.2,33.3,15.8z"
			/>
	</g>
	<g>
		<path d="M43.1,16.7l0.4-0.8c0.5,0.4,0.9,0.7,1.4,0.8c0.5,0.2,1,0.3,1.7,0.3c0.8,0,1.3-0.1,1.7-0.4c0.4-0.3,0.6-0.7,0.6-1.2
			c0-0.3-0.1-0.6-0.3-0.8s-0.5-0.4-0.8-0.5c-0.3-0.1-0.7-0.2-1.3-0.4c-0.7-0.2-1.3-0.3-1.8-0.5c-0.5-0.2-0.8-0.4-1.1-0.8
			c-0.3-0.3-0.4-0.8-0.4-1.4c0-0.5,0.1-1,0.4-1.4c0.3-0.4,0.7-0.7,1.2-1s1.1-0.3,1.8-0.3c0.6,0,1.3,0.1,1.8,0.3
			c0.6,0.2,1,0.5,1.4,0.9l-0.4,0.8c-0.4-0.4-0.9-0.7-1.3-0.8c-0.5-0.2-0.9-0.3-1.5-0.3c-0.7,0-1.3,0.2-1.7,0.5
			c-0.4,0.3-0.6,0.7-0.6,1.3c0,0.5,0.2,0.8,0.5,1.1c0.4,0.2,0.9,0.4,1.7,0.6c0.8,0.2,1.4,0.4,1.9,0.5c0.5,0.2,0.8,0.4,1.2,0.7
			c0.3,0.3,0.5,0.8,0.5,1.3c0,0.5-0.1,1-0.4,1.4c-0.3,0.4-0.7,0.7-1.2,0.9c-0.5,0.2-1.1,0.3-1.8,0.3C45.1,17.9,43.9,17.5,43.1,16.7z
			"/>
		<path d="M52.6,16.9h4.3v0.8h-5.6V17l4.2-5h-4v-0.8h5.3v0.8L52.6,16.9z"/>
		<path d="M59.4,17.4c-0.5-0.3-0.8-0.7-1.1-1.2c-0.3-0.5-0.4-1.1-0.4-1.8c0-0.7,0.1-1.3,0.4-1.8c0.3-0.5,0.6-0.9,1.1-1.2
			c0.5-0.3,1-0.4,1.6-0.4c0.6,0,1.2,0.1,1.6,0.4c0.5,0.3,0.8,0.7,1.1,1.2c0.3,0.5,0.4,1.1,0.4,1.8c0,0.7-0.1,1.3-0.4,1.8
			c-0.3,0.5-0.6,0.9-1.1,1.2c-0.5,0.3-1,0.4-1.6,0.4C60.4,17.9,59.9,17.7,59.4,17.4z M62.6,16.3c0.4-0.4,0.5-1.1,0.5-1.9
			c0-0.8-0.2-1.4-0.5-1.9c-0.4-0.4-0.9-0.7-1.5-0.7c-0.6,0-1.2,0.2-1.5,0.7C59.2,13,59,13.6,59,14.4c0,0.8,0.2,1.5,0.5,1.9
			c0.4,0.4,0.9,0.7,1.5,0.7C61.7,17,62.2,16.8,62.6,16.3z"/>
		<path d="M70.7,11.4c0.4,0.3,0.8,0.7,1,1.2c0.2,0.5,0.4,1.1,0.4,1.8c0,0.7-0.1,1.3-0.4,1.8c-0.2,0.5-0.6,0.9-1,1.2
			c-0.4,0.3-1,0.4-1.5,0.4c-0.5,0-1-0.1-1.4-0.3c-0.4-0.2-0.7-0.6-0.9-1v1.2h-1.1V8.1h1.1v4.2c0.2-0.4,0.5-0.8,0.9-1
			c0.4-0.2,0.8-0.3,1.4-0.3C69.7,11,70.3,11.1,70.7,11.4z M70.5,16.3c0.4-0.5,0.5-1.1,0.5-1.9c0-0.8-0.2-1.4-0.5-1.9
			s-0.9-0.7-1.5-0.7c-0.7,0-1.2,0.2-1.5,0.7s-0.5,1.1-0.5,1.9c0,0.8,0.2,1.4,0.5,1.9c0.4,0.4,0.9,0.7,1.5,0.7
			C69.6,17,70.1,16.7,70.5,16.3z"/>
		<path d="M74.9,17.4c-0.5-0.3-0.8-0.7-1.1-1.2c-0.3-0.5-0.4-1.1-0.4-1.8c0-0.7,0.1-1.3,0.4-1.8c0.3-0.5,0.6-0.9,1.1-1.2
			s1-0.4,1.6-0.4s1.2,0.1,1.6,0.4c0.5,0.3,0.8,0.7,1.1,1.2c0.3,0.5,0.4,1.1,0.4,1.8c0,0.7-0.1,1.3-0.4,1.8c-0.3,0.5-0.6,0.9-1.1,1.2
			c-0.5,0.3-1,0.4-1.6,0.4S75.3,17.7,74.9,17.4z M78,16.3c0.4-0.4,0.5-1.1,0.5-1.9c0-0.8-0.2-1.4-0.5-1.9c-0.4-0.4-0.9-0.7-1.5-0.7
			c-0.6,0-1.2,0.2-1.5,0.7c-0.4,0.4-0.5,1.1-0.5,1.9c0,0.8,0.2,1.5,0.5,1.9c0.4,0.4,0.9,0.7,1.5,0.7S77.7,16.8,78,16.3z"/>
		<path d="M80.9,17l0.4-0.8c0.4,0.3,0.7,0.5,1.1,0.6c0.4,0.1,0.8,0.2,1.2,0.2c0.5,0,0.9-0.1,1.1-0.3c0.3-0.2,0.4-0.4,0.4-0.7
			c0-0.3-0.1-0.5-0.3-0.6c-0.2-0.2-0.5-0.3-0.9-0.4l-1.1-0.3c-0.6-0.1-1-0.3-1.3-0.7c-0.3-0.3-0.5-0.7-0.5-1.1
			c0-0.6,0.2-1.1,0.7-1.4c0.5-0.4,1.1-0.5,1.8-0.5c0.5,0,0.9,0.1,1.3,0.2c0.4,0.1,0.8,0.4,1,0.6l-0.4,0.8c-0.6-0.5-1.3-0.8-2-0.8
			c-0.5,0-0.8,0.1-1.1,0.3c-0.3,0.2-0.4,0.4-0.4,0.8c0,0.3,0.1,0.5,0.2,0.6c0.2,0.2,0.4,0.3,0.8,0.4l1.1,0.3
			c0.6,0.1,1.1,0.4,1.4,0.7c0.3,0.3,0.4,0.7,0.4,1.2c0,0.6-0.2,1-0.7,1.4c-0.5,0.3-1.1,0.5-1.9,0.5C82.4,17.9,81.5,17.6,80.9,17z"/>
		<path d="M88.7,16.9H93v0.8h-5.6V17l4.2-5h-4v-0.8h5.3v0.8L88.7,16.9z"/>
		<path d="M94.6,17.8V8.1h1.1v9.7H94.6z"/>
		<path d="M103.5,11.1v6.6h-1.1v-1.2c-0.2,0.4-0.5,0.7-0.9,1c-0.4,0.2-0.8,0.3-1.4,0.3c-0.6,0-1.1-0.1-1.5-0.4s-0.8-0.7-1-1.2
			c-0.2-0.5-0.4-1.1-0.4-1.8c0-0.7,0.1-1.3,0.4-1.8c0.2-0.5,0.6-0.9,1-1.2c0.4-0.3,1-0.4,1.5-0.4c0.5,0,1,0.1,1.4,0.3
			c0.4,0.2,0.7,0.5,0.9,1v-1.1H103.5z M102,16.3c0.4-0.4,0.5-1.1,0.5-1.9c0-0.8-0.2-1.4-0.5-1.9s-0.9-0.7-1.5-0.7s-1.2,0.2-1.5,0.7
			c-0.4,0.5-0.5,1.1-0.5,1.9c0,0.8,0.2,1.4,0.5,1.9c0.4,0.4,0.9,0.7,1.5,0.7C101.1,17,101.6,16.7,102,16.3z"/>
		<path d="M105.5,8.3h1.3v1.2h-1.3V8.3z M105.6,17.8v-6.6h1.1v6.6H105.6z"/>
	</g>
</g>
</svg>
