<svg width="68" height="68" viewBox="0 0 68 68" fill="none" xmlns="http://www.w3.org/2000/svg">
<circle cx="34" cy="34" r="25" fill="white" fill-opacity="0.4"/>
<path d="M39.078 35.8435L34.5011 31.2978L29.9309 35.8348C29.8225 35.9424 29.6722 36.0016 29.5196 35.9973C29.3692 35.9929 29.2322 35.9292 29.1349 35.8172C29.0486 35.7184 29 35.5932 29 35.4636C29 35.3209 29.0553 35.1869 29.1592 35.0837L34.1208 30.1559C34.2225 30.0549 34.3574 30 34.5033 30C34.647 30 34.7841 30.0549 34.8858 30.1559L39.8408 35.0859C39.9425 35.1869 40 35.3253 40 35.4636C40 35.6086 39.9425 35.7425 39.8408 35.8435C39.6285 36.0522 39.2858 36.0522 39.078 35.8435Z" fill="black" fill-opacity="0.6"/>
</svg>
